<svg xmlns="http://www.w3.org/2000/svg" width="400" height="300" viewBox="0 0 400 300"><rect width="100%" height="100%" fill="#f5f5f5"/><path fill="#8b7355" d="M85.89 153.02h7.36l-2.82-7.69q-.21-.51-.43-1.22-.23-.7-.45-1.52-.21.82-.43 1.53-.23.71-.43 1.24zm5.87-14.4 9.09 23.14h-3.33q-.56 0-.91-.28-.36-.28-.53-.7l-1.73-4.72h-9.58l-1.73 4.72q-.13.37-.5.68-.37.3-.91.3h-3.36l9.1-23.14zm14.35 7.72.24 1.85q.77-1.47 1.82-2.31 1.06-.84 2.5-.84 1.14 0 1.82.5l-.25 2.96q-.08.28-.23.4-.16.12-.41.12-.24 0-.71-.08-.48-.08-.92-.08-.66 0-1.17.2-.51.19-.92.55t-.72.87-.59 1.17v10.11h-3.95v-16.42h2.32q.61 0 .85.22t.32.78m13.92 15.68q-2.14 0-3.29-1.21-1.14-1.21-1.14-3.34v-9.17h-1.68q-.32 0-.55-.2-.22-.21-.22-.63v-1.57l2.64-.43.83-4.48q.08-.32.31-.49.22-.18.57-.18h2.05v5.17h4.38v2.81h-4.38v8.9q0 .77.38 1.2.37.43 1.03.43.37 0 .61-.09.25-.08.44-.18.18-.1.32-.18.15-.09.29-.09.18 0 .29.09.11.08.24.26l1.18 1.92q-.86.72-1.98 1.09t-2.32.37m26.86-16.68h3.01l-5.21 16.42h-3.17q-.55 0-.75-.7l-2.95-9.49q-.14-.48-.26-.95-.12-.48-.2-.96-.1.48-.22.97t-.26.97l-2.99 9.46q-.2.7-.85.7H130l-5.2-16.42h3.15q.43 0 .74.21.3.21.4.53l2.35 8.77q.17.72.31 1.41.14.68.23 1.37.18-.69.38-1.37.2-.69.42-1.41l2.72-8.8q.1-.32.38-.53t.68-.21h1.74q.42 0 .71.21.3.21.4.53l2.64 8.8.39 1.41q.18.7.36 1.39.21-1.36.59-2.8l2.42-8.77q.11-.32.4-.53.28-.21.68-.21m12.52-.25q1.82 0 3.32.59 1.49.59 2.56 1.68 1.06 1.09 1.64 2.66.57 1.56.57 3.5 0 1.95-.57 3.52-.58 1.57-1.64 2.67-1.07 1.11-2.56 1.7-1.5.59-3.32.59-1.84 0-3.35-.59-1.5-.59-2.57-1.7-1.06-1.1-1.64-2.67-.59-1.57-.59-3.52 0-1.94.59-3.5.58-1.57 1.64-2.66 1.07-1.09 2.57-1.68 1.51-.59 3.35-.59m0 13.87q2.04 0 3.03-1.38.98-1.37.98-4.03 0-2.65-.98-4.05-.99-1.39-3.03-1.39-2.08 0-3.08 1.4t-1 4.04 1 4.03q1 1.38 3.08 1.38m14.6-12.62.24 1.85q.77-1.47 1.83-2.31 1.05-.84 2.49-.84 1.14 0 1.83.5l-.26 2.96q-.08.28-.23.4t-.41.12q-.24 0-.71-.08t-.92-.08q-.66 0-1.17.2-.51.19-.92.55t-.72.87-.58 1.17v10.11h-3.95v-16.42h2.32q.6 0 .84.22t.32.78m8.45-8.36h3.95v13.62h.74q.4 0 .63-.1.23-.11.47-.43l4.08-5.04q.26-.33.57-.51t.81-.18h3.62l-5.11 6.1q-.54.72-1.18 1.1.33.24.6.56.26.32.5.69l5.47 7.97h-3.56q-.47 0-.8-.15-.34-.15-.56-.55l-4.2-6.23q-.22-.37-.46-.48t-.72-.11h-.9v7.52h-3.95zm29.81 12.28h3.22q1.18 0 2.06-.3t1.46-.85q.59-.55.88-1.34.28-.79.28-1.77 0-.93-.28-1.68-.29-.75-.87-1.28-.57-.53-1.45-.81t-2.08-.28h-3.22zm-4.3-11.64h7.52q2.32 0 4.01.55 1.7.54 2.8 1.52 1.11.97 1.64 2.33.54 1.36.54 2.98 0 1.68-.56 3.08t-1.68 2.41-2.81 1.57-3.94.56h-3.22v8.14h-4.3zm22.67 7.72.24 1.85q.77-1.47 1.82-2.31 1.06-.84 2.5-.84 1.13 0 1.82.5l-.25 2.96q-.08.28-.24.4-.15.12-.4.12-.24 0-.72-.08-.47-.08-.92-.08-.65 0-1.16.2-.52.19-.92.55-.41.36-.72.87-.32.51-.59 1.17v10.11h-3.95v-16.42h2.32q.61 0 .85.22t.32.78m11.57 5.32h7.45q0-.76-.21-1.44-.22-.68-.65-1.2-.43-.51-1.1-.8-.66-.3-1.54-.3-1.71 0-2.7.98-.98.97-1.25 2.76m10.08 2.39h-10.16q.09 1.26.44 2.18.36.92.93 1.52.58.6 1.37.9.79.29 1.75.29t1.66-.22q.69-.22 1.21-.5.52-.27.92-.49.39-.23.76-.23.49 0 .73.37l1.14 1.44q-.66.77-1.47 1.29-.82.52-1.71.83t-1.81.44-1.78.13q-1.71 0-3.18-.57-1.48-.57-2.56-1.68-1.09-1.11-1.72-2.75-.62-1.64-.62-3.8 0-1.68.54-3.16.55-1.48 1.56-2.58 1.02-1.09 2.48-1.73 1.47-.64 3.31-.64 1.55 0 2.86.49 1.31.5 2.26 1.45.94.95 1.48 2.34.53 1.38.53 3.16 0 .89-.19 1.21-.19.31-.73.31m15.56-8.71h3.12l-6.51 16.42h-3.58l-6.51-16.42h3.26q.45 0 .74.21.3.21.4.53l3.16 8.77q.26.77.45 1.5.19.74.34 1.47.16-.73.35-1.47.19-.73.46-1.5l3.24-8.77q.11-.32.4-.53.28-.21.68-.21m5.35 0h3.97v16.42h-3.97zm4.51-4.78q0 .51-.21.96t-.55.78q-.34.34-.81.54-.46.2-.99.2-.51 0-.97-.2-.45-.2-.79-.54-.34-.33-.54-.78t-.2-.96q0-.53.2-.99.2-.47.54-.8.34-.34.79-.54.46-.2.97-.2.53 0 .99.2.47.2.81.54.34.33.55.8.21.46.21.99m6.61 11.1h7.45q0-.76-.21-1.44-.22-.68-.65-1.2-.43-.51-1.1-.8-.66-.3-1.54-.3-1.71 0-2.7.98-.98.97-1.25 2.76m10.08 2.39h-10.16q.09 1.26.45 2.18.35.92.92 1.52.58.6 1.37.9.79.29 1.75.29t1.66-.22 1.22-.5q.52-.27.91-.49.39-.23.76-.23.49 0 .73.37l1.14 1.44q-.66.77-1.47 1.29-.82.52-1.71.83-.88.31-1.8.44t-1.79.13q-1.71 0-3.18-.57t-2.56-1.68-1.71-2.75q-.63-1.64-.63-3.8 0-1.68.55-3.16.54-1.48 1.56-2.58 1.01-1.09 2.48-1.73 1.46-.64 3.3-.64 1.55 0 2.86.49 1.32.5 2.26 1.45t1.48 2.34q.54 1.38.54 3.16 0 .89-.2 1.21-.19.31-.73.31m24.32-8.71h3.01l-5.22 16.42h-3.17q-.54 0-.75-.7l-2.94-9.49q-.15-.48-.27-.95-.12-.48-.2-.96-.09.48-.21.97t-.27.97l-2.99 9.46q-.19.7-.85.7h-3.04l-5.2-16.42h3.15q.44 0 .74.21t.4.53l2.35 8.77q.18.72.31 1.41.14.68.24 1.37.17-.69.37-1.37.2-.69.43-1.41l2.72-8.8q.09-.32.37-.53t.68-.21h1.75q.41 0 .71.21.29.21.39.53l2.64 8.8q.21.72.39 1.41.19.7.36 1.39.21-1.36.59-2.8l2.42-8.77q.11-.32.4-.53t.69-.21"/></svg>